<?xml version="1.0" encoding="utf-8"?>
<!-- Generator: Adobe Illustrator 23.1.1, SVG Export Plug-In . SVG Version: 6.00 Build 0)  -->
<svg version="1.1" id="Layer_1" xmlns="http://www.w3.org/2000/svg" xmlns:xlink="http://www.w3.org/1999/xlink" x="0px" y="0px"
	 viewBox="0 0 2048 2048" enable-background="new 0 0 2048 2048" xml:space="preserve">
<path fill="#A50707" d="M1021.15,761.51C885.8,683.92,750.45,606.32,615.1,528.73c0.61,169,1.22,338,1.82,507
	c-16.76-2.45-37.64-3.51-61.1,0c-69.82,10.43-114.82,54.13-131.74,72.55c0,69.37,0,138.74,0,208.12
	c8.83,9.83,67.99,73.5,164.2,72.55c101.09-0.99,160.34-72.5,168.02-82.1c0.64-63.01,1.27-126.02,1.91-189.02
	c85.92,49.64,171.84,99.28,257.76,148.93c-142.56,80.83-285.12,161.66-427.69,242.48c-132.38-78.28-264.76-156.56-397.14-234.85
	c1.27,169.29,2.55,338.59,3.82,507.88c133.02,77.65,266.03,155.29,399.05,232.94c278.9-163.54,557.79-327.07,836.69-490.61
	c0.04-167.67,0.07-335.33,0.11-503c139.98-80.28,279.96-160.56,419.94-240.84c1.75-168.02,3.5-336.04,5.25-504.06
	C1577.72,438.3,1299.43,599.9,1021.15,761.51z M589.05,1194.05c-54.22-1.27-119-28.25-118.98-56.7
	c0.02-28.25,63.91-56.25,118.98-55.77c58.02,0.5,123.06,32.76,121.77,61.35C709.54,1171.18,643.53,1195.33,589.05,1194.05z
	 M667.3,1008.72c-0.96-132.37-1.93-264.75-2.89-397.12c115.53,65.95,231.05,131.89,346.58,197.84
	c1.44,131.41,2.89,262.82,4.33,394.23C899.32,1138.69,783.31,1073.71,667.3,1008.72z M244.19,1753.87
	c0.48-128.52,0.96-257.05,1.44-385.57c99.16,58.73,198.32,117.45,297.48,176.18c0.48,129,0.96,258.01,1.44,387.01
	C444.43,1872.28,344.31,1813.07,244.19,1753.87z"/>
<path fill="#A50707" d="M1006.66,293.91c-91.06,3.65-147.95,58.31-160.29,70.76c0,65.95,0,131.89,0,197.84
	c10.08,10.53,74.2,75.35,174.73,72.2c86.59-2.71,141.83-54.01,154.52-66.43c0.48-70.76,0.96-141.52,1.44-212.28
	C1164.85,344.92,1101.94,290.09,1006.66,293.91z M1010.99,438.31c-51.22-0.06-114.46-21.78-115.53-47.65
	c-1.08-26.15,61.36-55.65,116.97-56.32c55.5-0.67,118.85,27.18,118.41,53.43C1130.41,414.23,1065.18,438.38,1010.99,438.31z"/>
<path fill="#A50707" d="M1444.22,33.97c-95.48,2.5-151.91,67.92-160.29,77.98c0.48,67.39,0.96,134.78,1.44,202.17
	c6.8,8.48,68.08,82.22,170.4,79.42c95.43-2.61,151.08-69.73,158.85-79.42c0-67.87,0-135.74,0-203.61
	C1606.83,101.34,1545.28,31.33,1444.22,33.97z M1451.44,191.38c-57.3,0.98-120.86-29.66-119.86-56.32
	c0.97-25.98,63.23-47.01,111.19-49.1c55.39-2.41,123.97,19.04,125.63,46.21C1570.03,158.72,1507.74,190.41,1451.44,191.38z"/>
</svg>
