<?xml version="1.0" encoding="utf-8"?>
<!-- Generator: Adobe Illustrator 23.1.1, SVG Export Plug-In . SVG Version: 6.00 Build 0)  -->
<svg version="1.1" id="Layer_2" xmlns="http://www.w3.org/2000/svg" xmlns:xlink="http://www.w3.org/1999/xlink" x="0px" y="0px"
	 viewBox="0 0 512 512" style="enable-background:new 0 0 512 512;" xml:space="preserve">
<style type="text/css">
	.st0{fill:#E22A31;}
</style>
<g>
	<path class="st0" d="M248.46,81.93c-22.76-0.03-37.41,13.43-40.42,16.32c0,15.81,0,31.63,0,47.44
		c2.44,2.62,15.99,16.66,38.14,17.27c23,0.63,37.64-13.7,40.04-16.13c0.06-16.89,0.13-33.78,0.19-50.67
		C282.91,93.13,269.15,81.96,248.46,81.93z M247.13,116.09c-12.17-0.16-27.29-5.38-27.51-11.58c-0.22-6.24,14.65-13.21,27.89-13.28
		c13.5-0.08,28.69,6.99,28.46,13.28C275.75,110.83,260.02,116.25,247.13,116.09z"/>
	<path class="st0" d="M353.01,22.61c-22.76-0.03-37.41,13.43-40.42,16.32c0,15.81,0,31.63,0,47.44
		c2.44,2.62,15.99,16.66,38.14,17.27c23,0.63,37.64-13.7,40.04-16.13c0.06-16.89,0.13-33.78,0.19-50.67
		C387.45,33.81,373.7,22.64,353.01,22.61z M351.68,56.77c-12.17-0.16-27.29-5.38-27.51-11.58c-0.22-6.24,14.65-13.21,27.89-13.28
		c13.5-0.08,28.69,6.99,28.46,13.28C380.3,51.51,364.57,56.94,351.68,56.77z"/>
	<path class="st0" d="M447.72,77.95c-66.02,38.23-132.03,76.45-198.05,114.68c-32.3-18.74-64.59-37.49-96.89-56.23
		c0.31,40.64,0.62,81.29,0.92,121.93c-2.59-0.49-5.37-0.78-8.32-0.77c-18.83,0.08-32.52,12.52-37.77,17.88
		c-0.1,16.65-0.21,33.3-0.31,49.94c2.49,2.75,15.24,16.26,36.07,17.26c25.25,1.21,40.93-16.99,42.7-19.11
		c0.1-15.21,0.21-30.42,0.31-45.63c20.79,11.88,41.58,23.76,62.37,35.64c-34.48,19.17-68.96,38.35-103.44,57.52
		c-31.35-18.63-62.69-37.26-94.04-55.9c0.36,40.22,0.72,80.43,1.08,120.65c30.48,17.85,60.96,35.71,91.43,53.56
		c67.81-38.77,135.62-77.55,203.43-116.32c-0.18-40.04-0.36-80.07-0.54-120.11c33.6-18.76,67.21-37.51,100.81-56.27
		C447.57,157.11,447.64,117.53,447.72,77.95z M146.83,294.78c-12.17-0.16-27.29-5.38-27.52-11.58
		c-0.22-6.24,14.65-13.21,27.89-13.28c13.5-0.08,28.69,6.99,28.46,13.28C175.45,289.52,159.72,294.95,146.83,294.78z M165.43,251.31
		c-0.43-31.63-0.85-63.27-1.28-94.9c27.68,15.6,55.36,31.21,83.04,46.81c0.43,31.74,0.85,63.48,1.28,95.22
		C220.79,282.73,193.11,267.02,165.43,251.31z M64.44,429.57c0.21-30.67,0.43-61.34,0.64-92.01c23.62,13.89,47.24,27.79,70.85,41.68
		c0.11,30.88,0.21,61.77,0.32,92.65C112.32,457.78,88.38,443.67,64.44,429.57z"/>
</g>
</svg>
