<?xml version="1.0" encoding="UTF-8"?>
<svg id="Layer_2" data-name="Layer 2" xmlns="http://www.w3.org/2000/svg" viewBox="0 0 505.97 77.7">
  <defs>
    <style>
      .cls-1 {
        fill: #e22a31;
      }
    </style>
  </defs>
  <g>
    <path class="cls-1" d="M32.51,10.78c-3.75,0-6.17,2.21-6.66,2.68v7.79c.4,.43,2.64,2.74,6.29,2.84,3.79,.1,6.21-2.25,6.6-2.65,0-2.77,.02-5.55,.03-8.32-.58-.5-2.85-2.33-6.26-2.34Zm-.22,5.61c-2.01-.03-4.5-.88-4.54-1.9-.04-1.02,2.42-2.17,4.6-2.18,2.23-.01,4.73,1.15,4.69,2.18-.04,1.04-2.63,1.93-4.75,1.9Z"/>
    <path class="cls-1" d="M49.75,1.04c-3.75,0-6.17,2.21-6.66,2.68v7.79c.4,.43,2.64,2.74,6.29,2.84,3.79,.1,6.21-2.25,6.6-2.65,0-2.77,.02-5.55,.03-8.32-.58-.5-2.85-2.33-6.26-2.34Zm-.22,5.61c-2.01-.03-4.5-.88-4.54-1.9-.04-1.02,2.42-2.17,4.6-2.18,2.23-.01,4.73,1.15,4.69,2.18-.04,1.04-2.63,1.93-4.75,1.9Z"/>
    <path class="cls-1" d="M65.36,10.13c-10.88,6.28-21.77,12.56-32.65,18.83-5.33-3.08-10.65-6.16-15.97-9.23,.05,6.67,.1,13.35,.15,20.02-.43-.08-.89-.13-1.37-.13-3.1,.01-5.36,2.06-6.23,2.94-.02,2.73-.03,5.47-.05,8.2,.41,.45,2.51,2.67,5.95,2.83,4.16,.2,6.75-2.79,7.04-3.14,.02-2.5,.03-5,.05-7.49,3.43,1.95,6.86,3.9,10.28,5.85-5.68,3.15-11.37,6.3-17.05,9.45-5.17-3.06-10.34-6.12-15.5-9.18,.06,6.61,.12,13.21,.18,19.81,5.03,2.93,10.05,5.86,15.07,8.8,11.18-6.37,22.36-12.74,33.54-19.1-.03-6.58-.06-13.15-.09-19.73,5.54-3.08,11.08-6.16,16.62-9.24,.01-6.5,.03-13,.04-19.5ZM15.76,45.74c-2.01-.03-4.5-.88-4.54-1.9-.04-1.02,2.42-2.17,4.6-2.18,2.23-.01,4.73,1.15,4.69,2.18-.03,1.04-2.63,1.93-4.75,1.9Zm3.07-7.14c-.07-5.19-.14-10.39-.21-15.59,4.56,2.56,9.13,5.13,13.69,7.69,.07,5.21,.14,10.43,.21,15.64-4.56-2.58-9.13-5.16-13.69-7.74ZM2.17,67.88c.03-5.04,.07-10.07,.11-15.11,3.89,2.28,7.79,4.56,11.68,6.85,.02,5.07,.03,10.14,.05,15.22-3.95-2.32-7.89-4.63-11.84-6.95Z"/>
  </g>
  <g>
    <g>
      <path d="M82.3,.9h22.71c4.74,0,8.55,1.11,11.43,3.33,2.88,2.22,4.32,5.31,4.32,9.27,0,2.18-.42,4.05-1.26,5.6-.84,1.55-1.95,2.8-3.33,3.72-1.38,.93-2.89,1.55-4.55,1.88v.56c1.9,.13,3.74,.66,5.51,1.6,1.77,.94,3.22,2.31,4.36,4.1,1.14,1.79,1.71,4.03,1.71,6.71,0,3.08-.79,5.71-2.37,7.88-1.58,2.17-3.72,3.82-6.41,4.96-2.69,1.14-5.71,1.71-9.04,1.71h-23.08V.9Zm12.22,20.87h6.02c1.9,0,3.46-.26,4.66-.77,1.2-.51,2.09-1.23,2.65-2.14,.56-.92,.85-1.99,.85-3.21,0-1.83-.59-3.28-1.77-4.36-1.18-1.08-2.86-1.62-5.04-1.62h-7.37v12.11Zm0,21.69h6.69c3.36,0,5.78-.61,7.26-1.82,1.48-1.22,2.22-2.88,2.22-4.98,0-1.4-.31-2.63-.92-3.67-.61-1.04-1.53-1.84-2.74-2.41-1.22-.56-2.74-.85-4.57-.85h-7.93v13.72Z"/>
      <path d="M164.37,2.99c2.81,1.39,4.94,3.35,6.39,5.87,1.45,2.52,2.18,5.47,2.18,8.85,0,2.63-.49,4.93-1.47,6.9-.98,1.97-2.17,3.58-3.59,4.83-1.42,1.25-2.79,2.16-4.12,2.71l10.23,20.08h-13.69l-8.68-18.35h-7.11v18.35h-12.14V.9h21.69c4.06,0,7.49,.7,10.3,2.09Zm-12.26,22.13c2.41,0,4.36-.61,5.87-1.82,1.5-1.22,2.26-3.05,2.26-5.51s-.77-4.37-2.29-5.68c-1.53-1.3-3.43-1.96-5.71-1.96h-7.71v14.96h7.59Z"/>
      <path d="M182.76,52.22V.9h12.37V52.22h-12.37Z"/>
      <path d="M217.57,29.51c0,2.88,.38,5.33,1.15,7.33,.76,2.01,1.88,3.52,3.35,4.55,1.47,1.03,3.23,1.54,5.28,1.54,1.8,0,3.37-.38,4.68-1.15,1.32-.77,2.34-1.81,3.07-3.14,.73-1.33,1.14-2.84,1.24-4.55h11.77v1.47c-.07,3.51-1.02,6.59-2.84,9.23-1.82,2.64-4.28,4.7-7.39,6.17-3.11,1.47-6.64,2.2-10.6,2.2-4.79,0-8.84-.96-12.16-2.89-3.32-1.93-5.84-4.66-7.56-8.2-1.72-3.53-2.58-7.73-2.58-12.59v-5.71c0-4.89,.86-9.1,2.6-12.65,1.73-3.55,4.25-6.28,7.58-8.22,3.32-1.93,7.36-2.89,12.13-2.89,2.98,0,5.73,.42,8.23,1.26,2.51,.84,4.69,2.05,6.54,3.63s3.31,3.46,4.38,5.66c1.06,2.19,1.62,4.64,1.67,7.35v1.43h-11.77c-.1-1.75-.52-3.32-1.26-4.7-.74-1.38-1.76-2.46-3.07-3.25-1.3-.79-2.86-1.18-4.66-1.18-2.05,0-3.81,.53-5.26,1.6-1.45,1.06-2.57,2.6-3.35,4.61-.78,2.01-1.17,4.46-1.17,7.37v5.75Z"/>
      <path d="M283.78,23.16l18.5,29.06h-14.59l-12.93-20.9-4.59,5.38v15.53h-12.37V.9h12.37V22.78h.53L288.37,.9h13.23l-17.82,22.26Z"/>
      <path d="M305.02,36.47v-10.6h23.68v10.6h-23.68Z"/>
      <path d="M332.62,52.22L349.16,.9h15.04l16.47,51.32h-13.12l-3.35-11.84h-15.9l-3.35,11.84h-12.33Zm23.42-40.27l-5.45,19.51h11.39l-5.38-19.51h-.56Z"/>
      <path d="M389.97,40.79c1.42-1.25,3.15-1.88,5.21-1.88s3.83,.64,5.26,1.92,2.14,3.01,2.14,5.19-.72,3.86-2.16,5.11c-1.44,1.25-3.19,1.88-5.24,1.88s-3.76-.63-5.19-1.88c-1.43-1.25-2.14-2.96-2.14-5.11s.71-3.97,2.12-5.23Z"/>
      <path d="M445.18,2.99c2.81,1.39,4.94,3.35,6.39,5.87,1.45,2.52,2.18,5.47,2.18,8.85,0,2.63-.49,4.93-1.47,6.9-.98,1.97-2.17,3.58-3.59,4.83-1.42,1.25-2.79,2.16-4.12,2.71l10.23,20.08h-13.69l-8.69-18.35h-7.1v18.35h-12.14V.9h21.69c4.06,0,7.49,.7,10.3,2.09Zm-12.26,22.13c2.41,0,4.36-.61,5.87-1.82,1.5-1.22,2.26-3.05,2.26-5.51s-.76-4.37-2.29-5.68c-1.53-1.3-3.43-1.96-5.71-1.96h-7.71v14.96h7.59Z"/>
      <path d="M491.09,40.38c1.7-1.65,2.56-4.1,2.56-7.33V.9h12.33V34.48c0,3.76-.88,7.04-2.63,9.85-1.76,2.81-4.24,4.98-7.45,6.52-3.21,1.54-7.02,2.31-11.43,2.31s-8.19-.77-11.41-2.31c-3.22-1.54-5.7-3.72-7.44-6.52-1.74-2.81-2.61-6.09-2.61-9.85V.9h12.33V33.05c0,3.28,.85,5.74,2.54,7.37,1.69,1.63,3.89,2.44,6.6,2.44s4.91-.83,6.62-2.48Z"/>
    </g>
    <g>
      <path d="M90.63,74.14v-12.11h-6.88v12.11h-1.44v-13.41h9.76v13.41h-1.43Z"/>
      <path d="M103.08,61.24c.63,.34,1.12,.82,1.47,1.43s.53,1.33,.53,2.15-.17,1.53-.53,2.15c-.35,.62-.84,1.1-1.47,1.44-.63,.34-1.37,.51-2.23,.51h-3.27v5.22h-1.44v-13.41h4.73c.85,0,1.58,.17,2.22,.51Zm-.22,1.53c-.49-.49-1.17-.73-2.05-.73h-3.24v5.57h3.24c.59,0,1.09-.11,1.5-.33s.73-.54,.95-.95,.33-.91,.33-1.49c0-.88-.24-1.57-.73-2.06Z"/>
      <path d="M117.41,71.68c-.43,.89-1.04,1.57-1.83,2.04-.79,.47-1.72,.7-2.8,.7s-2-.23-2.79-.7c-.79-.47-1.4-1.15-1.83-2.04-.43-.89-.65-1.96-.65-3.21v-2.07c0-1.26,.22-2.33,.65-3.22s1.04-1.57,1.83-2.03,1.72-.7,2.79-.7,2.01,.23,2.8,.7,1.4,1.15,1.83,2.03,.65,1.96,.65,3.22v2.07c0,1.25-.22,2.32-.65,3.21Zm-1.3-7.87c-.33-.68-.79-1.2-1.36-1.54s-1.23-.52-1.97-.52-1.39,.17-1.97,.52-1.03,.86-1.37,1.54c-.33,.68-.5,1.54-.5,2.57v2.09c0,1.02,.17,1.88,.5,2.57s.79,1.2,1.37,1.55,1.23,.52,1.97,.52,1.4-.17,1.97-.52,1.03-.86,1.36-1.55,.5-1.54,.5-2.57v-2.09c0-1.03-.17-1.88-.5-2.57Z"/>
      <path d="M130.13,63.11h-.07l-7.11,11.03h-1.36v-13.41h1.43v11.02h.08l7.1-11.02h1.35v13.41h-1.43v-11.03Z"/>
      <path d="M137.7,66.59h1.72c.85,0,1.53-.22,2.06-.67,.53-.45,.79-1.06,.79-1.83,0-.7-.26-1.27-.78-1.71s-1.19-.66-2.01-.66c-.6,0-1.12,.1-1.56,.3s-.77,.47-1.02,.8-.38,.68-.4,1.06h-1.4c.03-.55,.2-1.09,.52-1.62s.8-.96,1.44-1.3,1.45-.51,2.42-.51c.91,0,1.68,.16,2.32,.48s1.11,.74,1.43,1.28,.48,1.13,.48,1.78c0,.58-.11,1.09-.34,1.53-.23,.43-.54,.78-.93,1.05-.39,.26-.83,.44-1.32,.53v.08c.58,.07,1.1,.24,1.56,.53,.46,.28,.82,.66,1.1,1.13,.27,.47,.41,1.01,.41,1.63,0,.8-.2,1.5-.59,2.09s-.94,1.06-1.65,1.39c-.71,.33-1.53,.5-2.48,.5s-1.76-.16-2.45-.47c-.69-.31-1.22-.73-1.6-1.26s-.59-1.12-.62-1.77h1.37c.04,.41,.2,.79,.48,1.12,.28,.34,.67,.61,1.15,.81,.49,.2,1.05,.3,1.7,.3s1.24-.11,1.72-.33c.48-.22,.86-.53,1.12-.94,.26-.4,.39-.87,.39-1.42,0-.88-.29-1.54-.88-1.97-.59-.44-1.41-.65-2.45-.65h-1.7v-1.27Z"/>
      <path d="M147.52,60.73h4.85c1.15,0,2.05,.29,2.72,.88s1,1.39,1,2.41c0,.52-.09,.99-.27,1.39-.18,.4-.43,.73-.75,1s-.7,.47-1.14,.6v.07c.6,.08,1.11,.26,1.55,.54,.44,.29,.77,.66,1.01,1.13,.24,.47,.36,1.02,.36,1.65,0,.77-.18,1.44-.56,2s-.9,.99-1.59,1.29-1.52,.45-2.5,.45h-4.69v-13.41Zm1.43,5.86h2.31c.75,0,1.37-.08,1.86-.24,.49-.16,.87-.41,1.12-.76s.37-.79,.37-1.33c0-.71-.22-1.25-.65-1.64s-1.04-.57-1.82-.57h-3.19v4.54Zm0,6.23h2.58c1.34,0,2.32-.19,2.93-.57s.91-.98,.91-1.81c0-.54-.12-1.01-.36-1.39-.24-.38-.59-.67-1.04-.86-.45-.19-.98-.29-1.6-.29h-3.43v4.92Z"/>
      <path d="M169.54,71.68c-.43,.89-1.04,1.57-1.83,2.04-.79,.47-1.72,.7-2.8,.7s-2-.23-2.79-.7c-.79-.47-1.4-1.15-1.83-2.04-.43-.89-.65-1.96-.65-3.21v-2.07c0-1.26,.22-2.33,.65-3.22s1.04-1.57,1.83-2.03,1.72-.7,2.79-.7,2.01,.23,2.8,.7,1.4,1.15,1.83,2.03,.65,1.96,.65,3.22v2.07c0,1.25-.22,2.32-.65,3.21Zm-1.3-7.87c-.33-.68-.79-1.2-1.36-1.54s-1.23-.52-1.97-.52-1.39,.17-1.97,.52-1.03,.86-1.37,1.54c-.33,.68-.5,1.54-.5,2.57v2.09c0,1.02,.17,1.88,.5,2.57s.79,1.2,1.37,1.55,1.23,.52,1.97,.52,1.4-.17,1.97-.52,1.03-.86,1.36-1.55,.5-1.54,.5-2.57v-2.09c0-1.03-.17-1.88-.5-2.57Z"/>
      <path d="M171.97,76.95v-4.11h1.11c.32-.22,.58-.52,.77-.87s.33-.84,.43-1.43c.1-.59,.17-1.34,.21-2.23,.04-.89,.08-1.98,.1-3.26l.11-4.31h8.29v12.11h1.76v4.11h-1.3v-2.81h-10.16v2.81h-1.32Zm9.58-14.92h-5.44l-.1,3.14c-.03,1.01-.07,1.92-.11,2.73-.04,.81-.1,1.53-.17,2.15s-.18,1.16-.31,1.61-.32,.82-.56,1.11v.07h6.68v-10.81Z"/>
      <path d="M188.33,68.49c0,.96,.15,1.78,.44,2.47,.29,.69,.72,1.22,1.28,1.59,.56,.37,1.25,.55,2.07,.55,.62,0,1.17-.11,1.66-.33,.48-.22,.87-.52,1.17-.9,.3-.38,.48-.82,.54-1.32h1.43c-.06,.74-.3,1.39-.73,1.98s-.99,1.04-1.69,1.38c-.7,.34-1.49,.51-2.38,.51-1.13,0-2.08-.24-2.86-.71s-1.36-1.15-1.76-2.03-.59-1.95-.59-3.18v-2.05c0-1.23,.2-2.3,.61-3.2s1-1.59,1.78-2.07,1.72-.72,2.82-.72c.67,0,1.28,.1,1.85,.3s1.06,.49,1.48,.86,.76,.8,1.01,1.29,.4,1.02,.44,1.6h-1.43c-.06-.51-.24-.97-.53-1.39s-.69-.74-1.17-.99-1.03-.36-1.65-.36c-.8,0-1.48,.19-2.04,.58s-.99,.93-1.29,1.63c-.29,.7-.44,1.53-.44,2.48v2.05Z"/>
      <path d="M202.91,74.14v-12.1h-4.17v-1.31h9.79v1.31h-4.19v12.1h-1.43Z"/>
      <path d="M211.12,60.73h4.85c1.15,0,2.05,.29,2.72,.88s1,1.39,1,2.41c0,.52-.09,.99-.27,1.39-.18,.4-.43,.73-.75,1s-.7,.47-1.14,.6v.07c.6,.08,1.11,.26,1.55,.54,.44,.29,.77,.66,1.01,1.13,.24,.47,.36,1.02,.36,1.65,0,.77-.18,1.44-.56,2s-.9,.99-1.59,1.29-1.52,.45-2.5,.45h-4.69v-13.41Zm1.43,5.86h2.31c.75,0,1.37-.08,1.86-.24,.49-.16,.87-.41,1.12-.76s.37-.79,.37-1.33c0-.71-.22-1.25-.65-1.64s-1.04-.57-1.82-.57h-3.19v4.54Zm0,6.23h2.58c1.34,0,2.32-.19,2.93-.57s.91-.98,.91-1.81c0-.54-.12-1.01-.36-1.39-.24-.38-.59-.67-1.04-.86-.45-.19-.98-.29-1.6-.29h-3.43v4.92Z"/>
      <path d="M233.14,71.68c-.43,.89-1.04,1.57-1.83,2.04-.79,.47-1.72,.7-2.8,.7s-2-.23-2.79-.7c-.79-.47-1.4-1.15-1.83-2.04-.43-.89-.65-1.96-.65-3.21v-2.07c0-1.26,.22-2.33,.65-3.22s1.04-1.57,1.83-2.03,1.72-.7,2.79-.7,2.01,.23,2.8,.7,1.4,1.15,1.83,2.03,.65,1.96,.65,3.22v2.07c0,1.25-.22,2.32-.65,3.21Zm-1.3-7.87c-.33-.68-.79-1.2-1.36-1.54s-1.23-.52-1.97-.52-1.39,.17-1.97,.52-1.03,.86-1.37,1.54c-.33,.68-.5,1.54-.5,2.57v2.09c0,1.02,.17,1.88,.5,2.57s.79,1.2,1.37,1.55,1.23,.52,1.97,.52,1.4-.17,1.97-.52,1.03-.86,1.36-1.55,.5-1.54,.5-2.57v-2.09c0-1.03-.17-1.88-.5-2.57Z"/>
      <path d="M250.43,63.11h-.07l-7.11,11.03h-1.36v-13.41h1.43v11.02h.08l7.1-11.02h1.35v13.41h-1.43v-11.03Z"/>
      <path d="M268.82,74.14v-12.11h-6.88v12.11h-1.44v-13.41h9.76v13.41h-1.43Z"/>
      <path d="M281.28,61.24c.63,.34,1.12,.82,1.47,1.43,.35,.62,.52,1.33,.52,2.15s-.17,1.53-.52,2.15c-.35,.62-.84,1.1-1.47,1.44-.63,.34-1.37,.51-2.23,.51h-3.27v5.22h-1.44v-13.41h4.73c.85,0,1.58,.17,2.22,.51Zm-.22,1.53c-.49-.49-1.17-.73-2.05-.73h-3.24v5.57h3.24c.59,0,1.09-.11,1.5-.33s.73-.54,.95-.95c.22-.41,.33-.91,.33-1.49,0-.88-.24-1.57-.73-2.06Z"/>
      <path d="M295.61,71.68c-.43,.89-1.04,1.57-1.83,2.04-.79,.47-1.72,.7-2.8,.7s-2-.23-2.79-.7c-.79-.47-1.4-1.15-1.83-2.04-.43-.89-.65-1.96-.65-3.21v-2.07c0-1.26,.22-2.33,.65-3.22s1.04-1.57,1.83-2.03c.79-.47,1.72-.7,2.79-.7s2.01,.23,2.8,.7c.79,.47,1.4,1.15,1.83,2.03s.65,1.96,.65,3.22v2.07c0,1.25-.22,2.32-.65,3.21Zm-1.3-7.87c-.33-.68-.79-1.2-1.36-1.54-.57-.35-1.23-.52-1.97-.52s-1.39,.17-1.97,.52-1.03,.86-1.37,1.54c-.33,.68-.5,1.54-.5,2.57v2.09c0,1.02,.17,1.88,.5,2.57s.79,1.2,1.37,1.55,1.23,.52,1.97,.52,1.4-.17,1.97-.52c.57-.35,1.03-.86,1.36-1.55s.5-1.54,.5-2.57v-2.09c0-1.03-.17-1.88-.5-2.57Z"/>
      <path d="M298.03,76.95v-4.11h1.11c.32-.22,.58-.52,.77-.87s.33-.84,.43-1.43c.1-.59,.17-1.34,.21-2.23,.04-.89,.08-1.98,.1-3.26l.11-4.31h8.29v12.11h1.76v4.11h-1.3v-2.81h-10.16v2.81h-1.32Zm9.58-14.92h-5.44l-.1,3.14c-.03,1.01-.07,1.92-.11,2.73-.04,.81-.09,1.53-.17,2.15s-.18,1.16-.31,1.61-.32,.82-.56,1.11v.07h6.68v-10.81Z"/>
      <path d="M312.11,74.14l4.82-13.41h1.42l4.81,13.41h-1.51l-1.43-4.19h-5.16l-1.43,4.19h-1.51Zm5.48-11.63l-2.14,6.25h4.34l-2.15-6.25h-.05Z"/>
      <path d="M331.97,60.73h1.43v5.81h.79l4.95-5.81h1.8l-5.69,6.64v-.45l5.96,7.21h-1.87l-5.16-6.3h-.78v6.3h-1.43v-6.3h-.77l-5.17,6.3h-1.85l5.94-7.18v.45l-5.73-6.67h1.85l4.95,5.81h.78v-5.81Z"/>
      <path d="M342.25,74.14l4.82-13.41h1.42l4.81,13.41h-1.51l-1.43-4.19h-5.16l-1.43,4.19h-1.51Zm5.48-11.63l-2.14,6.25h4.34l-2.15-6.25h-.05Z"/>
      <path d="M361.65,60.73h7.99v13.41h-1.43v-12.11h-5.15l-.1,3.12c-.04,1.59-.1,2.96-.19,4.1-.08,1.14-.23,2.08-.45,2.82-.21,.73-.53,1.28-.96,1.63-.43,.35-1.01,.53-1.73,.53-.16,0-.35-.03-.57-.09v-1.35c.19,.05,.36,.08,.51,.08,.55,0,.96-.28,1.23-.83s.45-1.4,.56-2.56c.1-1.15,.17-2.64,.21-4.45l.09-4.3Z"/>
      <path d="M381.61,74.14h-7.9v-13.41h7.9v1.31h-6.47v4.59h6.11v1.3h-6.11v4.89h6.47v1.32Z"/>
      <path d="M385.13,74.14v-13.41h7.76v1.32h-6.32v12.09h-1.44Z"/>
      <path d="M404.92,71.68c-.43,.89-1.04,1.57-1.83,2.04-.79,.47-1.72,.7-2.8,.7s-2-.23-2.79-.7c-.79-.47-1.4-1.15-1.83-2.04-.43-.89-.65-1.96-.65-3.21v-2.07c0-1.26,.22-2.33,.65-3.22s1.04-1.57,1.83-2.03c.79-.47,1.72-.7,2.79-.7s2.01,.23,2.8,.7c.79,.47,1.4,1.15,1.83,2.03s.65,1.96,.65,3.22v2.07c0,1.25-.22,2.32-.65,3.21Zm-1.3-7.87c-.33-.68-.79-1.2-1.36-1.54-.57-.35-1.23-.52-1.97-.52s-1.39,.17-1.97,.52-1.03,.86-1.37,1.54c-.33,.68-.5,1.54-.5,2.57v2.09c0,1.02,.17,1.88,.5,2.57s.79,1.2,1.37,1.55,1.23,.52,1.97,.52,1.4-.17,1.97-.52c.57-.35,1.03-.86,1.36-1.55s.5-1.54,.5-2.57v-2.09c0-1.03-.17-1.88-.5-2.57Z"/>
      <path d="M408.07,69.27v-1.28h6.19v1.28h-6.19Z"/>
      <path d="M419.53,67.84h-.79v6.3h-1.44v-13.41h1.44v5.81h.8l5.33-5.81h1.82l-5.87,6.42,6.13,6.99h-1.88l-5.54-6.3Z"/>
      <path d="M437.91,63.11h-.07l-7.11,11.03h-1.36v-13.41h1.43v11.02h.08l7.1-11.02h1.35v13.41h-1.43v-11.03Z"/>
      <path d="M450.36,61.24c.63,.34,1.12,.82,1.47,1.43,.35,.62,.52,1.33,.52,2.15s-.17,1.53-.52,2.15c-.35,.62-.84,1.1-1.47,1.44-.63,.34-1.37,.51-2.23,.51h-3.27v5.22h-1.44v-13.41h4.73c.85,0,1.58,.17,2.22,.51Zm-.22,1.53c-.49-.49-1.17-.73-2.05-.73h-3.24v5.57h3.24c.59,0,1.09-.11,1.5-.33s.73-.54,.95-.95c.22-.41,.33-.91,.33-1.49,0-.88-.24-1.57-.73-2.06Z"/>
      <path d="M463.64,74.14v-12.11h-6.88v12.11h-1.44v-13.41h9.76v13.41h-1.43Z"/>
      <path d="M477.69,63.11h-.07l-7.11,11.03h-1.36v-13.41h1.43v11.02h.08l7.1-11.02h1.35v13.41h-1.43v-11.03Z"/>
      <path d="M490.82,74.14v-5.97h-.04s-.19,.09-.46,.21c-.26,.12-.64,.23-1.12,.34-.49,.11-1.08,.16-1.78,.16-1.42,0-2.52-.37-3.3-1.11s-1.18-1.8-1.18-3.17v-3.86h1.44v3.86c0,1,.26,1.75,.79,2.26,.52,.51,1.28,.76,2.26,.76,.67,0,1.26-.06,1.75-.18s.88-.24,1.16-.38c.28-.13,.44-.21,.49-.23v-6.09h1.43v13.41h-1.43Z"/>
      <path d="M494.94,74.14l4.82-13.41h1.42l4.81,13.41h-1.51l-1.43-4.19h-5.16l-1.43,4.19h-1.51Zm5.48-11.63l-2.14,6.25h4.34l-2.15-6.25h-.05Z"/>
    </g>
  </g>
</svg>