<?xml version="1.0" standalone="no"?>
<!DOCTYPE svg PUBLIC "-//W3C//DTD SVG 20010904//EN"
 "http://www.w3.org/TR/2001/REC-SVG-20010904/DTD/svg10.dtd">
<svg version="1.0" xmlns="http://www.w3.org/2000/svg"
 width="745.000000pt" height="745.000000pt" viewBox="0 0 745.000000 745.000000"
 preserveAspectRatio="xMidYMid meet">
<metadata>
Created by potrace 1.14, written by Peter Selinger 2001-2017
</metadata>
<g transform="translate(0.000000,745.000000) scale(0.100000,-0.100000)"
fill="#000000" stroke="none">
<path d="M5277 7444 c-1 -1 -27 -4 -57 -7 -156 -15 -357 -116 -477 -239 l-42
-43 2 -381 c3 -415 -1 -387 62 -447 113 -109 291 -203 420 -222 276 -40 520
41 716 239 24 24 39 49 40 65 0 14 1 190 1 391 l1 364 -53 49 c-161 147 -344
224 -553 231 -31 2 -58 2 -60 0z m242 -219 c99 -21 185 -60 221 -102 33 -37
34 -41 20 -77 -38 -100 -272 -196 -464 -190 -210 6 -434 125 -410 218 17 69
176 147 334 163 25 3 47 7 49 9 9 8 183 -6 250 -21z"/>
<path d="M6685 6440 c-82 -49 -157 -93 -165 -97 -8 -4 -188 -108 -400 -231
-212 -124 -398 -232 -415 -242 -176 -100 -375 -216 -397 -231 -15 -11 -30 -19
-32 -19 -6 0 -154 -86 -218 -126 -21 -13 -40 -24 -43 -24 -3 0 -24 -11 -46
-26 -22 -14 -55 -33 -72 -43 -78 -44 -685 -395 -707 -410 -14 -8 -34 -21 -45
-26 -18 -10 -195 -113 -325 -189 -25 -15 -59 -34 -76 -43 l-32 -16 -323 186
c-178 102 -338 194 -356 204 -18 10 -115 65 -215 123 -101 58 -192 110 -203
116 -49 27 -363 208 -392 226 l-33 19 4 -949 3 -949 -111 -1 c-213 -1 -401
-78 -571 -236 l-40 -37 -1 -392 -1 -392 31 -33 c106 -115 312 -218 471 -237
68 -8 175 -8 220 1 17 2 39 6 50 8 83 15 192 60 285 120 63 41 189 154 191
172 1 10 7 443 8 602 l1 103 63 -34 c34 -19 100 -57 147 -84 47 -28 110 -65
140 -82 55 -31 164 -94 230 -133 19 -11 113 -65 208 -120 l173 -100 -29 -18
c-16 -10 -58 -34 -93 -53 -60 -33 -246 -137 -279 -157 -14 -8 -64 -37 -330
-187 -52 -30 -102 -58 -110 -63 -26 -17 -191 -110 -194 -110 -2 0 -90 -49
-195 -110 -106 -60 -194 -110 -197 -110 -3 0 -18 -8 -32 -18 -15 -10 -52 -33
-83 -50 -49 -28 -58 -30 -80 -18 -13 7 -109 64 -214 126 -104 62 -199 118
-210 124 -11 6 -87 51 -170 100 -82 50 -159 94 -170 100 -11 6 -69 41 -130 77
-94 57 -546 324 -567 336 -4 2 -6 -276 -3 -619 2 -343 5 -771 6 -953 l2 -330
41 -26 c23 -14 61 -37 86 -51 25 -14 97 -56 160 -93 63 -37 133 -78 155 -90
22 -13 86 -50 143 -84 57 -34 108 -61 113 -61 5 0 9 -4 9 -10 0 -5 4 -10 9
-10 8 0 53 -25 161 -90 8 -5 44 -26 80 -46 36 -21 87 -51 115 -68 27 -17 52
-31 55 -31 3 -1 23 -12 45 -26 22 -14 60 -37 85 -51 25 -14 84 -48 132 -77 48
-28 94 -54 102 -57 8 -3 44 13 81 35 37 23 69 41 72 41 3 0 17 8 31 19 15 10
47 29 72 43 25 14 239 139 475 278 237 139 538 315 670 392 132 77 252 149
267 159 15 10 29 19 31 19 3 0 164 94 358 208 755 444 954 560 1032 604 54 31
57 34 57 73 1 22 2 445 4 940 2 495 4 903 5 907 0 3 65 43 144 89 78 45 184
106 234 136 51 29 96 54 100 54 5 1 19 9 33 19 14 9 45 28 70 42 25 14 135 77
245 140 110 64 319 184 465 267 146 84 268 155 272 159 7 7 11 282 23 1465 2
235 1 427 -3 427 -4 -1 -74 -41 -157 -90z m-3605 -1568 l595 -339 2 -99 c0
-55 4 -382 8 -729 4 -346 9 -633 11 -637 3 -5 2 -8 -2 -8 -5 0 -168 90 -404
223 -46 26 -83 47 -285 159 -93 53 -186 104 -205 115 -19 11 -60 34 -90 51
-30 17 -80 44 -110 61 -30 17 -90 50 -132 73 -77 42 -78 44 -78 83 -5 513 -11
1422 -10 1437 0 10 5 7 700 -390z m-795 -1390 c160 -51 265 -130 265 -201 0
-31 -52 -84 -113 -115 -158 -79 -377 -94 -557 -37 -134 43 -230 116 -230 176
0 51 85 123 192 161 131 47 322 54 443 16z m-1300 -1155 c61 -35 126 -74 145
-85 19 -10 114 -66 210 -123 96 -58 266 -158 377 -224 l203 -120 1 -95 c2
-234 4 -1350 3 -1350 -5 0 -142 81 -469 275 -192 114 -365 216 -384 227 -104
60 -257 153 -262 161 -5 7 -5 1057 0 1375 l1 64 33 -20 c17 -10 82 -49 142
-85z"/>
<path d="M3530 6455 c-90 -19 -186 -54 -259 -95 -70 -38 -175 -114 -201 -144
-18 -23 -19 -748 0 -771 22 -26 154 -122 212 -154 116 -64 288 -106 418 -103
189 4 360 64 510 178 92 69 88 60 88 224 0 80 1 257 2 393 2 285 10 259 -101
332 -99 65 -204 109 -339 141 -47 12 -275 11 -330 -1z m275 -150 c170 -26 331
-126 319 -199 -4 -27 -53 -75 -104 -101 -170 -86 -404 -101 -592 -36 -197 68
-234 152 -106 239 124 84 315 122 483 97z"/>
</g>
</svg>
